<svg width="19" height="17" viewBox="0 0 19 17" fill="none" xmlns="http://www.w3.org/2000/svg">
<path d="M18 7.26316V14.4211C18 14.8956 17.8115 15.3508 17.4759 15.6864C17.1403 16.022 16.6851 16.2105 16.2105 16.2105H2.78947C2.31488 16.2105 1.85972 16.022 1.52412 15.6864C1.18853 15.3508 1 14.8956 1 14.4211V2.78947C1 2.31488 1.18853 1.85972 1.52412 1.52412C1.85972 1.18853 2.31488 1 2.78947 1H11.7368M5.47368 1V16.2105" stroke="#7E22CE" stroke-linecap="round"/>
<path d="M15.3158 1C15.3158 1.49255 15.3158 3.68421 12.6316 3.68421C13.1241 3.68421 15.3158 3.68421 15.3158 6.36842C15.3158 3.68421 17.5074 3.68421 18 3.68421C15.3158 3.68421 15.3158 1.49255 15.3158 1ZM12.6316 7.26316C12.6316 7.59153 12.6316 9.05263 10.8421 9.05263C11.1705 9.05263 12.6316 9.05263 12.6316 10.8421C12.6316 9.05263 14.0927 9.05263 14.421 9.05263C12.6316 9.05263 12.6316 7.59153 12.6316 7.26316Z" stroke="#7E22CE" stroke-linecap="round" stroke-linejoin="round"/>
</svg>
