<svg width="86" height="22" viewBox="0 0 86 22" fill="none" xmlns="http://www.w3.org/2000/svg">
    <path
        d="M5.75188 21L0.439875 5.224H3.92788L8.11987 18.568H8.63188L12.8239 5.224H16.3119L10.9999 21H5.75188ZM26.1796 21.448C24.5796 21.448 23.1823 21.1173 21.9876 20.456C20.793 19.7733 19.8543 18.824 19.1716 17.608C18.5103 16.3707 18.1796 14.9413 18.1796 13.32V12.936C18.1796 11.2933 18.5103 9.864 19.1716 8.648C19.833 7.41067 20.7503 6.46133 21.9236 5.8C23.1183 5.11733 24.4943 4.776 26.0516 4.776C27.5663 4.776 28.889 5.11733 30.0196 5.8C31.1716 6.46133 32.0676 7.38933 32.7076 8.584C33.3476 9.77867 33.6676 11.176 33.6676 12.776V14.024H21.5396C21.5823 15.4107 22.041 16.52 22.9156 17.352C23.8116 18.1627 24.921 18.568 26.2436 18.568C27.481 18.568 28.409 18.2907 29.0276 17.736C29.6676 17.1813 30.1583 16.5413 30.4996 15.816L33.2196 17.224C32.921 17.8213 32.4836 18.4507 31.9076 19.112C31.353 19.7733 30.617 20.328 29.6996 20.776C28.7823 21.224 27.609 21.448 26.1796 21.448ZM21.5716 11.496H30.3076C30.2223 10.3013 29.7956 9.37333 29.0276 8.712C28.2596 8.02933 27.257 7.688 26.0196 7.688C24.7823 7.688 23.769 8.02933 22.9796 8.712C22.2116 9.37333 21.7423 10.3013 21.5716 11.496ZM44.9631 21.448C43.4485 21.448 42.0725 21.128 40.8351 20.488C39.6191 19.848 38.6485 18.92 37.9231 17.704C37.2191 16.488 36.8671 15.0267 36.8671 13.32V12.904C36.8671 11.1973 37.2191 9.74667 37.9231 8.552C38.6485 7.336 39.6191 6.408 40.8351 5.768C42.0725 5.10667 43.4485 4.776 44.9631 4.776C46.4778 4.776 47.7685 5.05333 48.8351 5.608C49.9018 6.16267 50.7551 6.89867 51.3951 7.816C52.0565 8.73333 52.4831 9.74667 52.6751 10.856L49.4751 11.528C49.3685 10.824 49.1445 10.184 48.8031 9.608C48.4618 9.032 47.9818 8.57333 47.3631 8.232C46.7445 7.89067 45.9658 7.72 45.0271 7.72C44.1098 7.72 43.2778 7.93333 42.5311 8.36C41.8058 8.76533 41.2298 9.36267 40.8031 10.152C40.3765 10.92 40.1631 11.8587 40.1631 12.968V13.256C40.1631 14.3653 40.3765 15.3147 40.8031 16.104C41.2298 16.8933 41.8058 17.4907 42.5311 17.896C43.2778 18.3013 44.1098 18.504 45.0271 18.504C46.4138 18.504 47.4698 18.152 48.1951 17.448C48.9205 16.7227 49.3791 15.8053 49.5711 14.696L52.7711 15.432C52.5151 16.52 52.0565 17.5227 51.3951 18.44C50.7551 19.3573 49.9018 20.0933 48.8351 20.648C47.7685 21.1813 46.4778 21.448 44.9631 21.448ZM61.8989 21C60.9389 21 60.1709 20.712 59.5949 20.136C59.0402 19.56 58.7629 18.792 58.7629 17.832V8.008H54.4109V5.224H58.7629V0.00799942H62.0589V5.224H66.7629V8.008H62.0589V17.256C62.0589 17.896 62.3575 18.216 62.9549 18.216H66.2509V21H61.8989ZM77.4646 21.448C75.886 21.448 74.478 21.128 73.2406 20.488C72.0246 19.8267 71.0646 18.888 70.3606 17.672C69.6566 16.456 69.3046 15.016 69.3046 13.352V12.872C69.3046 11.208 69.6566 9.77867 70.3606 8.584C71.0646 7.368 72.0246 6.42933 73.2406 5.768C74.478 5.10667 75.886 4.776 77.4646 4.776C79.0433 4.776 80.4513 5.10667 81.6886 5.768C82.926 6.42933 83.8966 7.368 84.6006 8.584C85.3046 9.77867 85.6566 11.208 85.6566 12.872V13.352C85.6566 15.016 85.3046 16.456 84.6006 17.672C83.8966 18.888 82.926 19.8267 81.6886 20.488C80.4513 21.128 79.0433 21.448 77.4646 21.448ZM77.4646 18.504C78.9153 18.504 80.0886 18.0453 80.9846 17.128C81.902 16.1893 82.3606 14.8987 82.3606 13.256V12.968C82.3606 11.3253 81.9126 10.0453 81.0166 9.128C80.1206 8.18933 78.9366 7.72 77.4646 7.72C76.0353 7.72 74.862 8.18933 73.9446 9.128C73.0486 10.0453 72.6006 11.3253 72.6006 12.968V13.256C72.6006 14.8987 73.0486 16.1893 73.9446 17.128C74.862 18.0453 76.0353 18.504 77.4646 18.504Z"
        fill="white" style="mix-blend-mode:darken" />
</svg>